PathFileType	4	(X/Y/Z)	OpenSim_Sub04_EMGStiffKnee_Gyro.trc
DataRate	CameraRate	NumFrames	NumMarkers	Units	OrigDataRate	OrigDataStartFrame	OrigNumFrames
100	100	27	8	m	100	6208	8277
Frame#	Time	torso_imu_offset_imu	pelvis_imu_offset_imu	tibia_r_imu_offset_imu	femur_r_imu_offset_imu	tibia_l_imu_offset_imu	femur_l_imu_offset_imu	toes_r_imu_offset_imu	toes_l_imu_offset_imu
				X1	Y1	Z1	X2	Y2	Z2	X3	Y3	Z3	X4	Y4	Z4	X5	Y5	Z5	X6	Y6	Z6	X7	Y7	Z7	X8		Y8	Z8	

6208	62.07000000	0.32335661	-0.05656073	-0.03526860	-0.23381284	-0.34350113	0.18265473	0.53078901	-0.29944039	-2.68232161	0.85042141	0.73252675	1.01552799	-1.03798834	-0.30166401	0.65088833	-0.49302190	-0.68148433	0.36601880	-0.20653861	-3.92518761	-0.86093403	-0.11014080	-0.02882027	-0.10245810
6209	62.08000000	0.30373310	-0.03742672	-0.03624947	-0.17243950	-0.28796103	0.09698424	0.66070699	-0.33421559	-2.77444798	1.21458217	0.79641779	1.25977852	-0.88065175	-0.45910724	0.52348334	-0.29063688	-0.58346621	0.48337364	-0.08452978	-4.57671086	-1.11539565	-0.10234985	-0.00181272	-0.08837460
6210	62.09000000	0.31634536	-0.01327054	-0.05125516	-0.09404428	-0.26121623	0.02238779	0.77084555	-0.35891888	-2.85500523	1.39199266	0.85252546	1.54416006	-0.59483589	-0.52821605	0.57160019	0.07446553	-0.52157260	0.59427888	-0.52844028	-5.24116381	-1.38915286	0.09428106	-0.09454286	-0.16723561
6211	62.10000000	0.32376357	0.02117586	-0.06544928	-0.01874524	-0.24327253	-0.02797629	0.96627093	-0.36791151	-2.92346036	1.34560518	0.89831474	1.85687548	-0.42507181	-0.41671658	0.64660251	0.36118876	-0.44624453	0.64585295	-0.64049058	-5.61669014	-1.70386928	0.07392910	-0.06442398	-0.17067847
6212	62.11000000	0.32484847	0.05817283	-0.08263148	0.04696226	-0.21314628	-0.06205600	1.25360685	-0.36806096	-2.99536270	1.06571301	0.94847897	2.18400312	-0.15666501	-0.44226588	0.75664151	0.41067469	-0.27758015	0.63892645	-0.22003651	-5.36816486	-1.97630202	0.17630193	-0.09842185	-0.19780163
6213	62.12000000	0.32251993	0.07119743	-0.11216244	0.10545183	-0.13772660	-0.09543095	1.43351966	-0.39514039	-3.03749909	0.69855855	0.96894990	2.46761739	0.14357198	-0.50026915	0.85158907	0.33990611	-0.05184763	0.58437974	0.05308425	-5.12927402	-2.21795689	0.13579068	-0.08007675	-0.19415313
6214	62.13000000	0.31928981	0.07510118	-0.14973814	0.14654203	-0.02910569	-0.13088519	1.46300514	-0.45014874	-2.97815707	0.46600991	0.89338781	2.58954394	0.26018996	-0.49448427	0.82788984	0.36857914	0.09940018	0.50665532	0.01866625	-4.89098029	-2.28578118	0.09765446	-0.07359891	-0.16581884
6215	62.14000000	0.31242058	0.09428335	-0.20430663	0.18569365	0.07510961	-0.16304130	1.25473077	-0.49348126	-2.73120738	0.37061706	0.72782512	2.50544223	0.23850918	-0.50146814	0.72866432	0.52596285	0.07113429	0.44116646	0.52583463	-4.18957243	-2.26890726	0.02362235	-0.11260686	-0.08407101
6216	62.15000000	0.28668162	0.10924006	-0.25875048	0.23337622	0.16541613	-0.18777550	0.95471314	-0.52748009	-2.33933217	0.41622522	0.63319147	2.37414464	0.24411971	-0.47338318	0.63596952	0.67513483	-0.07761508	0.41042382	-0.20442213	-2.71821213	-1.72849391	-0.05103537	-0.10201678	-0.00550436
6217	62.16000000	0.25251943	0.09524292	-0.30099972	0.29373508	0.23518174	-0.18860383	0.66925955	-0.68682664	-1.89004633	0.65209193	0.70352811	2.24780884	0.19278475	-0.39173088	0.57842548	0.68968784	-0.23140222	0.43692600	-0.61610672	-0.80393995	-0.99157647	-0.08004451	-0.07683363	0.02433495
6218	62.17000000	0.22149605	0.07916500	-0.34948653	0.31747371	0.27114977	-0.15629182	0.02274354	-0.85903823	-1.34218264	0.75208368	0.84340358	2.00962826	0.07958567	-0.34144018	0.56061707	0.56109595	-0.35601155	0.50631018	0.12746303	-0.41922722	-0.81708108	-0.07393036	-0.07053557	0.03395394
6219	62.18000000	0.20158663	0.11600632	-0.39973567	0.26907808	0.25948803	-0.07282913	-0.79495945	-0.70437732	-0.58112023	0.53476546	0.96003920	1.78488050	0.03391520	-0.29642077	0.55667411	0.37678373	-0.44729271	0.58364827	-0.02064339	-0.33897844	-0.38247909	-0.07091443	-0.11374621	0.04368569
6220	62.19000000	0.17928545	0.16606708	-0.43080106	0.21149434	0.19477422	0.04514484	-1.13747560	-0.24383763	0.40612006	0.19854149	0.98910213	1.71025273	0.03094367	-0.27162972	0.52858910	0.21709823	-0.49472323	0.63843460	-0.08870933	0.63380021	0.32840082	-0.03117830	-0.14882898	0.03257507
6221	62.20000000	0.15527646	0.16714723	-0.43778536	0.17873194	0.13594685	0.15075413	-0.84010363	0.10505385	1.36432975	-0.21788403	0.94148977	1.78721419	0.04560462	-0.24979295	0.51755149	0.14821908	-0.48806013	0.65351759	-0.23089829	1.12355409	0.72312695	0.03044750	-0.17062049	0.01214539
6222	62.21000000	0.17795745	0.14738912	-0.42885314	0.15140279	0.11497188	0.25693387	-0.63600386	0.19518762	2.08885294	-0.68252086	0.88834766	1.88852238	0.08789361	-0.21379171	0.55484217	0.16281271	-0.44166724	0.63343617	-0.26228112	1.54263955	0.88127277	0.08924180	-0.19068467	-0.00246976
6223	62.22000000	0.21641174	0.14802553	-0.41448221	0.12527140	0.08163036	0.35158675	-0.72284705	0.28220919	2.63350637	-1.04243992	0.84107210	1.89697828	0.15705268	-0.20955882	0.59873956	0.20235759	-0.38693242	0.59343084	-0.32556822	2.22319859	1.01179760	0.11458131	-0.20335381	-0.00241684
6224	62.23000000	0.24786385	0.14781189	-0.39254613	0.09060973	0.04383754	0.38832314	-0.52673944	0.36567188	3.05211270	-1.18273048	0.78398919	1.83950737	0.19088867	-0.20643715	0.63270607	0.21882757	-0.33169684	0.55862948	-0.45974639	2.79340309	1.10354732	0.13052260	-0.22829671	0.01092386
6225	62.24000000	0.29538335	0.14471042	-0.36249527	0.05733280	0.02095398	0.38280132	-0.18046719	0.40636255	3.35794657	-1.11587480	0.71719089	1.73072136	0.21327552	-0.19287398	0.64700902	0.20923800	-0.28833735	0.55554613	-0.50821011	3.20480754	1.17863174	0.12498956	-0.21758772	0.02902791
6226	62.25000000	0.33328650	0.15341155	-0.33056940	0.03487506	0.01984753	0.35567484	-0.00902082	0.51957593	3.61166151	-0.88905995	0.62716326	1.61915955	0.21168788	-0.20262507	0.65605297	0.21124968	-0.28084400	0.58155462	-0.48404653	3.56024174	1.29733922	0.09873929	-0.20768867	0.05309575
6227	62.26000000	0.36158092	0.16342238	-0.30581574	0.01473321	0.04351740	0.31852444	0.04278470	0.69122888	3.83935600	-0.53666990	0.53437509	1.53202969	0.21342735	-0.21382612	0.67727123	0.22768915	-0.30284615	0.61826751	-0.48867375	3.84212588	1.43324225	0.07547777	-0.18702123	0.07223373
6228	62.27000000	0.37112447	0.17703555	-0.28324390	-0.00415890	0.07129175	0.28407366	0.07090603	0.85487095	4.02103487	-0.08996220	0.46731140	1.45177558	0.25428434	-0.19849144	0.69686261	0.23876072	-0.32121089	0.65865347	-0.53234685	4.03315874	1.52766103	0.03915076	-0.17554480	0.10817485
6229	62.28000000	0.36542160	0.18331431	-0.25615792	-0.01363272	0.09876372	0.25185367	0.00044831	0.94053408	4.15061239	0.40334044	0.42660856	1.36099785	0.30029153	-0.17229849	0.69833956	0.22997271	-0.33219492	0.68819512	-0.57412548	4.15148953	1.55858975	0.00916983	-0.15176495	0.13879537
6230	62.29000000	0.36140089	0.18363484	-0.23628804	-0.01694332	0.12122763	0.22330817	-0.13207478	0.98678586	4.22291184	0.85527418	0.38929285	1.24641312	0.32123940	-0.15912822	0.68900951	0.19498682	-0.35148307	0.70822117	-0.57906921	4.19230978	1.56898609	-0.01691297	-0.12699028	0.16023840
6231	62.30000000	0.34942058	0.17777985	-0.21935355	-0.02288611	0.13206926	0.20450316	-0.13311145	1.05440897	4.26439977	1.21711110	0.33934593	1.13419065	0.30907112	-0.16198676	0.69513091	0.13453352	-0.37419331	0.72799943	-0.55321428	4.17645186	1.64456412	-0.04438547	-0.10745869	0.18621877
6232	62.31000000	0.32695854	0.16367453	-0.20654350	-0.00623362	0.13859345	0.18956718	0.06308744	1.13941927	4.29106508	1.49529030	0.27966956	1.04529026	0.31518574	-0.16863298	0.71221810	0.06880821	-0.39870156	0.75619471	-0.48787865	4.10451701	1.83433878	-0.06321216	-0.07838597	0.21646691
6233	62.32000000	0.30367877	0.13917905	-0.19931120	0.02129547	0.14292330	0.18552399	0.22497708	1.22005808	4.31143541	1.69935069	0.24524419	0.96546506	0.34594118	-0.17223433	0.71774070	0.03830588	-0.40683770	0.79469534	-0.46530835	3.96209146	2.11084274	-0.09016965	-0.07245943	0.25607234
6234	62.33000000	0.28364974	0.09559778	-0.19452432	0.06002562	0.15585686	0.18763724	0.20392489	1.25009066	4.33048230	1.82092580	0.26002368	0.89406801	0.37637278	-0.14536809	0.71606222	0.07054914	-0.37239753	0.82482330	-0.48242132	3.81829554	2.33459450	-0.10350224	-0.05726930	0.27573635
